<?xml version="1.0" encoding="UTF-8" standalone="no"?>
<svg
   xmlns:dc="http://purl.org/dc/elements/1.1/"
   xmlns:cc="http://creativecommons.org/ns#"
   xmlns:rdf="http://www.w3.org/1999/02/22-rdf-syntax-ns#"
   xmlns:svg="http://www.w3.org/2000/svg"
   xmlns="http://www.w3.org/2000/svg"
   xmlns:sodipodi="http://sodipodi.sourceforge.net/DTD/sodipodi-0.dtd"
   xmlns:inkscape="http://www.inkscape.org/namespaces/inkscape"
   sodipodi:docname="Logo.svg"
   inkscape:version="1.0 (4035a4fb49, 2020-05-01)"
   id="svg238"
   version="1.1"
   viewBox="0 0 31.749683 21.166456"
   height="80"
   width="120">
  <defs
     id="defs232">
    <clipPath
       clipPathUnits="userSpaceOnUse"
       id="clipPath322">
      <path
         d="M 173.771,702.828 H 414.714 V 840.875 H 173.771 Z"
         id="path320" />
    </clipPath>
  </defs>
  <sodipodi:namedview
     inkscape:window-maximized="1"
     inkscape:window-y="-9"
     inkscape:window-x="-9"
     inkscape:window-height="1001"
     inkscape:window-width="1920"
     width="399px"
     scale-x="0.99999"
     units="px"
     showgrid="false"
     inkscape:document-rotation="0"
     inkscape:current-layer="layer1"
     inkscape:document-units="px"
     inkscape:cy="36.722234"
     inkscape:cx="153.8343"
     inkscape:zoom="2.8"
     inkscape:pageshadow="2"
     inkscape:pageopacity="0.0"
     borderopacity="1.0"
     bordercolor="#666666"
     pagecolor="#ffffff"
     id="base" />
  <metadata
     id="metadata235">
    <rdf:RDF>
      <cc:Work
         rdf:about="">
        <dc:format>image/svg+xml</dc:format>
        <dc:type
           rdf:resource="http://purl.org/dc/dcmitype/StillImage" />
        <dc:title></dc:title>
      </cc:Work>
    </rdf:RDF>
  </metadata>
  <g
     id="layer1"
     inkscape:groupmode="layer"
     inkscape:label="Ebene 1">
    <g
       id="g316"
       transform="matrix(0.35277777,0,0,-0.35277777,-87.832217,290.72384)">
      <g
         id="g318"
         clip-path="url(#clipPath322)">
        <g
           id="g324"
           transform="translate(294.8442,785.8677)">
          <path
             d="m 0,0 c 0,0 -2.67,-0.864 -2.904,-1.178 -0.237,-0.314 -5.262,3.612 -5.733,4.79 -0.47,1.178 -1.805,0.078 -2.748,0 -0.942,-0.079 2.906,3.926 2.906,3.926 0,0 2.983,-0.472 2.983,0 0,0.471 0.236,2.905 0.236,2.905 0,0 2.512,5.261 2.748,4.868 0.236,-0.393 -0.471,-6.752 -0.471,-7.224 0,-0.471 2.426,-3.219 2.426,-3.219 L -3.533,6.046 0,2.198 Z m 39.652,-15.782 c -0.077,0.392 -3.925,4.24 -4.474,4.475 -0.551,0.236 -4.32,1.963 -5.183,3.848 -0.864,1.884 -1.412,1.727 -1.412,1.727 0,0 -4.478,0.549 -5.105,0.471 C 22.85,-5.339 19.788,-0.55 19.709,0 19.631,0.549 14.055,4.947 13.82,5.418 13.584,5.889 13.191,7.695 12.563,8.244 11.936,8.794 10.208,10.05 8.874,10.521 7.539,10.993 5.498,9.03 5.498,9.03 l -6.055,8.401 c 0,0 -3.604,-1.649 -4.154,-1.963 C -5.26,15.154 -5.731,12.484 -6.124,12.327 -6.517,12.17 -7.537,9.658 -7.537,9.658 L -9.657,8.48 c 0,0 -1.964,-2.513 -2.67,-2.669 -0.706,-0.158 -1.099,0.392 -1.099,0.392 l -1.178,0.727 c 0,0 -0.471,-0.649 -0.943,-1.198 -0.471,-0.55 -3.062,-3.455 -3.297,-3.455 -0.236,0 -3.298,-4.868 -4.397,-5.026 -1.099,-0.156 -3.613,-2.041 -3.848,-2.07 -0.235,-0.03 -1.884,-1.855 -2.591,-3.74 -0.707,-1.884 -2.905,-3.14 -3.062,-3.376 -0.157,-0.236 -2.198,-1.649 -2.826,-1.649 -0.629,0 -3.063,-2.12 -4.555,-3.141 -1.492,-1.021 -1.806,-1.57 -1.021,-1.919 0.786,-0.349 0.943,0.27 1.414,0.663 0.47,0.393 2.669,1.57 3.69,2.042 1.02,0.47 4.24,2.826 5.339,3.455 1.099,0.628 1.728,2.041 2.121,2.512 0.393,0.471 1.334,1.492 1.57,2.12 0.236,0.628 1.021,2.198 2.277,2.355 1.256,0.158 4.083,3.298 4.161,3.612 0.079,0.315 1.963,2.199 2.277,2.592 0.315,0.392 2.356,2.434 2.356,2.434 0,0 0.943,-1.257 0.864,-1.649 -0.079,-0.393 0.706,-2.042 0.785,-2.434 0.079,-0.393 1.884,-0.786 2.12,-0.943 0.235,-0.157 0.863,-1.805 0.863,-1.805 0,0 -0.942,0.628 -1.02,0.863 -0.079,0.236 -0.785,0 -1.099,-0.157 -0.314,-0.157 0.628,-2.67 0.785,-3.555 0.157,-0.886 0.078,-1.078 0,-1.47 -0.079,-0.393 -1.099,-0.628 -1.336,-1.368 -0.234,-0.739 0.629,-0.752 1.1,-0.831 0.471,-0.078 -0.078,-1.099 -0.314,-1.021 -0.235,0.079 -2.669,-3.297 -2.905,-3.375 -0.236,-0.079 -2.12,-1.649 -2.355,-1.807 -0.236,-0.157 -3.691,-2.198 -3.691,-2.198 0,0 1.256,-0.079 1.884,0 0.629,0.079 1.492,0.863 2.513,1.178 1.02,0.314 4.083,2.748 4.397,3.454 0.315,0.707 1.963,1.963 1.963,1.963 0,0 2.278,2.356 3.063,3.141 0.785,0.786 1.256,4.083 6.046,6.439 4.79,2.355 10.914,11.542 10.914,11.542 0,0 0.157,-1.57 0.48,-2.178 C 9.439,6.322 9.659,4.868 9.659,4.868 l 1.606,-1.53 c -0.193,0.178 -1.008,0.882 -1.763,0.745 -0.864,-0.157 0,-1.649 0,-1.649 0,0 0.706,-0.55 1.57,-1.413 0.864,-0.864 3.22,-3.848 3.04,-4.319 -0.146,-0.386 2.599,-2.619 3.292,-3.163 -0.689,0.46 -2.745,1.2 -3.191,1.2 -0.471,0 0.756,-6.429 2.875,-7.489 2.12,-1.061 5.83,-5.477 5.83,-5.477 l 3.496,5.192 12.227,-5.192 1.718,-0.068 c 0,0 -0.629,2.12 -0.707,2.513"
             style="fill:#1d1d1b;fill-opacity:1;fill-rule:nonzero;stroke:none"
             id="path326" />
        </g>
        <g
           id="g328"
           transform="translate(300.8916,786.417)">
          <path
             d="m 0,0 -3.377,-10.992 -2.12,1.066 -5.81,-5.856 4.114,7.145 3.188,1.549 z"
             style="fill:#1d1d1b;fill-opacity:1;fill-rule:nonzero;stroke:none"
             id="path330" />
        </g>
        <g
           id="g332"
           transform="translate(266.5781,772.833)">
          <path
             d="m 0,0 c 0,0 7.272,4.284 8.794,1.963 0,0 -1.492,4.555 0.942,6.282 z"
             style="fill:#1d1d1b;fill-opacity:1;fill-rule:nonzero;stroke:none"
             id="path334" />
        </g>
        <g
           id="g336"
           transform="translate(321.249,817.7905)">
          <path
             d="M 0,0 -0.168,0.507 C -0.431,1.096 -1.006,2.129 -1.979,2.558 -2.86,2.945 -4.656,1.981 -6.17,0.59 -3.625,-1.464 -2.371,-4.183 -2.371,-4.183 0.279,-3.193 0,0 0,0"
             style="fill:#1d1d1b;fill-opacity:1;fill-rule:nonzero;stroke:none"
             id="path338" />
        </g>
        <g
           id="g340"
           transform="translate(309.9238,812.9448)">
          <path
             d="m 0,0 c 0,0 -0.767,-0.336 -1.308,1.587 -0.542,1.923 0.45,3.66 0.84,4.145 0.393,0.486 1.383,2.036 5.509,2.726 4.126,0.691 4.947,-0.522 5.488,-1.101 0.542,-0.579 0.824,-1.568 0.804,-2.073 0,0 -0.578,1.867 -1.979,2.484 C 7.954,8.383 4.237,5.583 3.023,3.081 1.812,0.579 0.747,-0.075 0,0"
             style="fill:#1d1d1b;fill-opacity:1;fill-rule:nonzero;stroke:none"
             id="path342" />
        </g>
        <g
           id="g344"
           transform="translate(316.0479,802.5908)">
          <path
             d="m 0,0 c 0,0 -0.345,-0.018 -0.346,-0.354 0,0 0.057,-0.248 0.117,-0.224 0.061,0.023 0.003,-0.066 0.003,-0.066 l -0.12,-0.065 c 0,0 -0.218,-0.261 -0.21,-0.383 0.01,-0.121 -0.06,-0.238 -0.219,-0.364 0,0 -0.061,0 -0.051,-0.061 0.01,-0.06 0.873,-1.404 1.348,-1.372 0.478,0.033 0.836,0.383 0.925,0.504 L 1.489,-2.39 v -0.48 c 0,-0.037 0.239,-0.028 0.283,0 0.047,0.028 0.249,0.154 0.337,0.144 0.09,-0.009 0.412,0.01 0.43,0.005 0.02,-0.005 0.356,0.037 0.141,0.242 l -0.294,0.015 c 0,0 -0.453,0.42 -0.472,0.453 -0.018,0.032 -0.051,0.793 -0.154,0.793 -0.103,0 -0.109,0.089 -0.724,-0.21 l -0.335,0.336 c 0,0 -0.103,0.159 0.014,0.257 0.117,0.098 0.131,0.206 0.131,0.206 0,0 0.041,0.391 0.004,0.387 C 0.812,-0.247 0.826,-0.219 0.701,-0.298 0.574,-0.377 0.645,-0.499 0.64,-0.62 0.635,-0.742 0.533,-0.826 0.533,-0.826 L 0.285,-0.7 H 0.201 c 0,0 -0.019,0.126 0.032,0.14 0.052,0.015 0.113,0.257 0.099,0.299 C 0.317,-0.219 0.252,0.01 0,0"
             style="fill:#1d1d1b;fill-opacity:1;fill-rule:nonzero;stroke:none"
             id="path346" />
        </g>
      </g>
    </g>
  </g>
</svg>
